REM DIRINDEX 1\2\3,1\2\4,1\2\5,1\2\6
REM DIRNAME folder01,folder02,folder03,folder04,folder05,folder06
TITLE ""
FILE "163 163.mp3" MP3
  TRACK 01 AUDIO
    TITLE "0:"
    INDEX 01 00:00:00
  TRACK 02 AUDIO
    TITLE "3:cjc157_5965"
    INDEX 01 00:00:13
  TRACK 03 AUDIO
    TITLE "0:"
    INDEX 01 00:02:28
  TRACK 04 AUDIO
    TITLE "4:cjc157_5966"
    INDEX 01 00:02:71
  TRACK 05 AUDIO
    TITLE "0:"
    INDEX 01 00:04:46
  TRACK 06 AUDIO
    TITLE "5:cjc157_5967"
    INDEX 01 00:05:24
  TRACK 07 AUDIO
    TITLE "0:"
    INDEX 01 00:09:18
  TRACK 08 AUDIO
    TITLE "3:cjc157_5968"
    INDEX 01 00:09:67
  TRACK 09 AUDIO
    TITLE "0:"
    INDEX 01 00:11:50
  TRACK 10 AUDIO
    TITLE "4:cjc157_5969"
    INDEX 01 00:12:22
  TRACK 11 AUDIO
    TITLE "0:"
    INDEX 01 00:14:45
  TRACK 12 AUDIO
    TITLE "5:cjc157_5970"
    INDEX 01 00:15:13
  TRACK 13 AUDIO
    TITLE "0:"
    INDEX 01 00:18:37
  TRACK 14 AUDIO
    TITLE "5:cjc157_5971"
    INDEX 01 00:19:07
  TRACK 15 AUDIO
    TITLE "0:"
    INDEX 01 00:22:38
  TRACK 16 AUDIO
    TITLE "3:cjc157_5972"
    INDEX 01 00:23:12
  TRACK 17 AUDIO
    TITLE "0:"
    INDEX 01 00:25:41
  TRACK 18 AUDIO
    TITLE "4:cjc157_5973"
    INDEX 01 00:26:15
  TRACK 19 AUDIO
    TITLE "0:"
    INDEX 01 00:28:13
  TRACK 20 AUDIO
    TITLE "5:cjc157_5974"
    INDEX 01 00:28:60
  TRACK 21 AUDIO
    TITLE "0:"
    INDEX 01 00:32:11
  TRACK 22 AUDIO
    TITLE "3:cjc157_5975"
    INDEX 01 00:32:54
  TRACK 23 AUDIO
    TITLE "0:"
    INDEX 01 00:33:69
  TRACK 24 AUDIO
    TITLE "4:cjc157_5976"
    INDEX 01 00:34:43
  TRACK 25 AUDIO
    TITLE "0:"
    INDEX 01 00:35:63
  TRACK 26 AUDIO
    TITLE "5:cjc157_5977"
    INDEX 01 00:36:38
  TRACK 27 AUDIO
    TITLE "0:"
    INDEX 01 00:39:07
  TRACK 28 AUDIO
    TITLE "3:cjc157_5978"
    INDEX 01 00:39:56
  TRACK 29 AUDIO
    TITLE "0:"
    INDEX 01 00:40:60
  TRACK 30 AUDIO
    TITLE "4:cjc157_5979"
    INDEX 01 00:41:28
  TRACK 31 AUDIO
    TITLE "0:"
    INDEX 01 00:43:03
  TRACK 32 AUDIO
    TITLE "5:cjc157_5980"
    INDEX 01 00:43:46
  TRACK 33 AUDIO
    TITLE "0:"
    INDEX 01 00:47:48
  TRACK 34 AUDIO
    TITLE "3:cjc157_5981"
    INDEX 01 00:48:20
  TRACK 35 AUDIO
    TITLE "0:"
    INDEX 01 00:49:41
  TRACK 36 AUDIO
    TITLE "4:cjc157_5982"
    INDEX 01 00:50:11
  TRACK 37 AUDIO
    TITLE "0:"
    INDEX 01 00:51:42
  TRACK 38 AUDIO
    TITLE "5:cjc157_5983"
    INDEX 01 00:52:10
  TRACK 39 AUDIO
    TITLE "0:"
    INDEX 01 00:55:03
  TRACK 40 AUDIO
    TITLE "3:cjc157_5984"
    INDEX 01 00:55:48
  TRACK 41 AUDIO
    TITLE "0:"
    INDEX 01 00:56:43
  TRACK 42 AUDIO
    TITLE "4:cjc157_5985"
    INDEX 01 00:57:17
  TRACK 43 AUDIO
    TITLE "0:"
    INDEX 01 00:58:32
  TRACK 44 AUDIO
    TITLE "5:cjc157_5986"
    INDEX 01 00:59:06
  TRACK 45 AUDIO
    TITLE "0:"
    INDEX 01 01:02:32
  TRACK 46 AUDIO
    TITLE "3:cjc157_5987"
    INDEX 01 01:03:00
  TRACK 47 AUDIO
    TITLE "0:"
    INDEX 01 01:04:41
  TRACK 48 AUDIO
    TITLE "4:cjc157_5988"
    INDEX 01 01:05:13
  TRACK 49 AUDIO
    TITLE "0:"
    INDEX 01 01:06:24
  TRACK 50 AUDIO
    TITLE "5:cjc157_5989"
    INDEX 01 01:07:10
  TRACK 51 AUDIO
    TITLE "0:"
    INDEX 01 01:10:55
  TRACK 52 AUDIO
    TITLE "3:cjc157_5990"
    INDEX 01 01:11:29
  TRACK 53 AUDIO
    TITLE "0:"
    INDEX 01 01:12:60
  TRACK 54 AUDIO
    TITLE "4:cjc157_5991"
    INDEX 01 01:13:30
  TRACK 55 AUDIO
    TITLE "0:"
    INDEX 01 01:14:57
  TRACK 56 AUDIO
    TITLE "5:cjc157_5992"
    INDEX 01 01:15:31
  TRACK 57 AUDIO
    TITLE "0:"
    INDEX 01 01:18:31
  TRACK 58 AUDIO
    TITLE "5:cjc157_5993"
    INDEX 01 01:19:01
  TRACK 59 AUDIO
    TITLE "0:"
    INDEX 01 01:21:70
  TRACK 60 AUDIO
    TITLE "3:cjc157_5994"
    INDEX 01 01:22:42
  TRACK 61 AUDIO
    TITLE "0:"
    INDEX 01 01:23:73
  TRACK 62 AUDIO
    TITLE "4:cjc157_5995"
    INDEX 01 01:24:43
  TRACK 63 AUDIO
    TITLE "0:"
    INDEX 01 01:26:21
  TRACK 64 AUDIO
    TITLE "5:cjc157_5996"
    INDEX 01 01:26:66
  TRACK 65 AUDIO
    TITLE "0:"
    INDEX 01 01:31:22
  TRACK 66 AUDIO
    TITLE "5:cjc157_5997"
    INDEX 01 01:31:71
  TRACK 67 AUDIO
    TITLE "0:"
    INDEX 01 01:35:51
